<svg width="168" height="44" viewBox="0 0 168 44" fill="none" xmlns="http://www.w3.org/2000/svg">
<g clip-path="url(#clip0_3979_166)">
<path d="M18.6638 22.024L-0.10535 11.2141L18.5436 0.428284L37.3128 11.2622L18.6638 22.024Z" fill="#271B4F"/>
<path d="M37.433 32.7138L18.6638 43.5717L18.5436 22.0961L37.3128 11.2622L37.433 32.7138Z" fill="#FCD329"/>
<path d="M18.6638 43.5718L-0.10535 32.7378V11.2142L18.6638 22.0241V43.5718Z" fill="#CEEAE6"/>
<path d="M54.4958 11.9828C57.3076 11.9828 59.3504 12.9678 61.2489 14.5772C61.4652 14.7934 61.4892 15.1297 61.2729 15.3699C61.0326 15.6102 60.7202 15.8984 60.4799 16.1627C60.2395 16.4509 60.0713 16.4029 59.7589 16.1386C58.341 14.8895 56.3223 13.9526 54.4478 13.9526C50.0258 13.9526 46.6854 17.628 46.6854 21.976C46.6854 26.2759 50.0499 30.0474 54.4478 30.0474C57.5239 30.0474 59.4705 28.8703 59.4705 28.8703V24.9547H56.2502C55.9378 24.9547 55.7215 24.7385 55.7215 24.4502V23.4173C55.7215 23.105 55.9378 22.8888 56.2502 22.8888H61.1047C61.3931 22.8888 61.6094 23.129 61.6094 23.4173V29.8071C61.6094 29.9513 61.4892 30.1675 61.3931 30.2636C61.3931 30.2636 58.5333 32.1133 54.4958 32.1133C48.9204 32.1133 44.4023 27.6692 44.4023 22.0961C44.4023 16.475 48.8963 11.9828 54.4958 11.9828Z" fill="#271B4F"/>
<path d="M65.4305 20.6307H64.5653C64.277 20.6307 64.0366 20.871 64.0366 21.1592V31.2725C64.0366 31.5607 64.277 31.801 64.5653 31.801H65.4305C65.7189 31.801 65.9592 31.5607 65.9592 31.2725V21.1592C65.9592 20.895 65.7189 20.6307 65.4305 20.6307Z" fill="#271B4F"/>
<path d="M67.257 21.2793C67.0887 20.919 67.257 20.6307 67.6655 20.6307H68.5307C68.771 20.6307 68.9392 20.7749 69.0353 20.943L72.496 28.9423H72.52L76.1969 20.943C76.269 20.7749 76.4373 20.6307 76.6776 20.6307H77.3985C77.8071 20.6307 77.9753 20.919 77.8071 21.2793L73.0247 31.8009C72.9766 31.9451 72.8084 32.0892 72.544 32.0892H72.3999C72.1595 32.0892 71.9913 31.9451 71.9192 31.8009L67.257 21.2793Z" fill="#271B4F"/>
<path d="M80.5227 20.6307H79.6576C79.3692 20.6307 79.1289 20.871 79.1289 21.1592V31.2725C79.1289 31.5607 79.3692 31.801 79.6576 31.801H80.5227C80.8111 31.801 81.0514 31.5607 81.0514 31.2725V21.1592C81.0514 20.895 80.8111 20.6307 80.5227 20.6307Z" fill="#271B4F"/>
<path d="M83.8872 21.1592C83.8872 20.8709 84.1276 20.6307 84.4159 20.6307H84.9447C85.185 20.6307 85.3292 20.7508 85.4013 20.967L85.6416 21.8318C85.6416 21.8318 87.2277 20.3425 89.5588 20.3425C92.8032 20.3425 93.8846 22.4564 93.8846 25.3631V31.2484C93.8846 31.5367 93.6443 31.7769 93.3559 31.7769H92.4667C92.1784 31.7769 91.938 31.5367 91.938 31.2484V25.3631C91.938 23.2491 91.0008 22.2162 89.4146 22.2162C87.3238 22.2162 85.8098 23.8016 85.8098 23.8016V31.2484C85.8098 31.5367 85.5695 31.7769 85.2811 31.7769H84.4159C84.1276 31.7769 83.8872 31.5367 83.8872 31.2484V21.1592Z" fill="#271B4F"/>
<path d="M97.3213 28.0776C97.3213 28.0776 96.4321 26.9245 96.4321 25.291C96.4321 22.6966 98.2585 20.3665 101.142 20.3665H105.853C106.165 20.3665 106.381 20.5827 106.381 20.895V21.3754C106.381 21.5676 106.261 21.8319 106.069 21.8559L104.555 22.1682C104.555 22.1682 105.805 23.081 105.805 25.291C105.805 27.8373 103.978 30.0474 101.118 30.0474C99.34 30.0474 98.4748 29.3507 98.4748 29.3507C98.4748 29.3507 97.2492 29.9032 97.2492 31.0323C97.2492 31.7289 97.7538 32.4015 98.7872 32.4015H102.801C105.156 32.4015 106.982 33.5546 106.982 35.9808C106.982 38.2869 104.579 40.4969 101.19 40.4969C97.4414 40.4969 95.8313 38.4791 95.8313 36.6534C95.8313 34.9719 97.1771 34.2272 97.4414 34.059V33.987C96.7205 33.7948 95.3987 33.0741 95.3987 31.3446C95.4467 29.1586 97.3213 28.0776 97.3213 28.0776ZM101.19 38.6472C103.041 38.6472 104.939 37.6143 104.939 36.0048C104.939 35.6445 104.771 34.1791 102.825 34.1791C101.791 34.1791 100.758 34.1791 99.7245 34.1791C99.7245 34.1791 97.85 34.6836 97.85 36.3171C97.85 37.6623 99.2919 38.6472 101.19 38.6472ZM103.954 25.219C103.954 23.3693 102.849 22.0961 101.166 22.0961C99.4601 22.0961 98.2345 23.3693 98.2345 25.219C98.2345 27.0686 99.4601 28.3418 101.166 28.3418C102.849 28.3418 103.954 27.0686 103.954 25.219Z" fill="#271B4F"/>
<path d="M114.168 12.7996C114.168 12.5113 114.384 12.2711 114.697 12.2711H120.825C124.237 12.2711 126.544 14.4811 126.544 17.4118C126.544 19.5498 125.127 21.1352 123.805 21.8799C125.295 22.5045 127.169 23.8497 127.169 26.4201C127.169 29.5429 124.694 31.801 121.089 31.801H114.697C114.384 31.801 114.168 31.5608 114.168 31.2725V12.7996ZM121.281 29.9513C123.324 29.9513 124.79 28.4139 124.79 26.396C124.79 24.4262 122.964 22.9609 120.801 22.9609H116.187V29.9513H121.281ZM120.801 21.0391C122.94 21.0391 124.165 19.5017 124.165 17.556C124.165 15.5381 122.964 14.1929 120.801 14.1929H116.259V21.0391H120.801Z" fill="#271B4F"/>
<path d="M129.284 12.7996C129.284 12.5113 129.524 12.2711 129.813 12.2711H130.678C130.966 12.2711 131.207 12.5113 131.207 12.7996V31.2965C131.207 31.5848 130.966 31.825 130.678 31.825H129.813C129.524 31.825 129.284 31.5848 129.284 31.2965V12.7996Z" fill="#271B4F"/>
<path d="M138.801 20.3665C141.901 20.3665 144.352 23.057 144.352 26.2039C144.352 29.4228 141.901 32.0892 138.801 32.0892C135.701 32.0892 133.249 29.3988 133.249 26.2039C133.249 23.033 135.701 20.3665 138.801 20.3665ZM138.801 30.2636C140.844 30.2636 142.43 28.4379 142.43 26.1798C142.43 23.9698 140.844 22.1922 138.801 22.1922C136.758 22.1922 135.172 23.9698 135.172 26.1798C135.172 28.4619 136.758 30.2636 138.801 30.2636Z" fill="#271B4F"/>
<path d="M151.298 20.3665C152.98 20.3665 154.278 21.0391 155.287 22.3123C155.479 22.5525 155.431 22.8888 155.167 23.105L154.638 23.5614C154.23 23.9458 154.085 23.6815 153.821 23.4413C153.268 22.7927 152.331 22.2643 151.25 22.2643C149.159 22.2643 147.525 23.9938 147.525 26.2279C147.525 28.4619 149.111 30.2395 151.201 30.2395C152.884 30.2395 153.509 29.3988 154.157 28.7982C154.494 28.4619 154.686 28.51 154.999 28.7502L155.311 28.9664C155.599 29.1586 155.671 29.4708 155.503 29.7591C154.662 31.1043 153.124 32.1133 151.226 32.1133C148.125 32.1133 145.506 29.639 145.506 26.2759C145.53 22.9609 148.246 20.3665 151.298 20.3665Z" fill="#271B4F"/>
<path d="M157.57 12.7996C157.57 12.5113 157.81 12.2711 158.099 12.2711H158.964C159.252 12.2711 159.493 12.5113 159.493 12.7996V24.8826L164.251 20.9671C164.467 20.7749 164.708 20.6308 164.924 20.6308H166.438C166.919 20.6308 166.895 21.1592 166.678 21.3274L161.367 25.5793L167.543 31.1043C167.76 31.2965 167.736 31.801 167.255 31.801H165.717C165.477 31.801 165.26 31.6568 165.164 31.5848L159.493 26.2039V31.2965C159.493 31.5848 159.252 31.825 158.964 31.825H158.099C157.81 31.825 157.57 31.5848 157.57 31.2965V12.7996Z" fill="#271B4F"/>
<path d="M68.0981 13.4002H66.8244C66.7282 13.4002 66.6802 13.3281 66.6802 13.256V12.8236C66.6802 12.7516 66.7523 12.6795 66.8244 12.6795H70.2129C70.3091 12.6795 70.3571 12.7516 70.3571 12.8236V13.256C70.3571 13.3281 70.285 13.4002 70.2129 13.4002H68.9392V18.0124C68.9392 18.0844 68.8671 18.1565 68.795 18.1565H68.2663C68.1942 18.1565 68.1221 18.0844 68.1221 18.0124L68.0981 13.4002Z" fill="#271B4F"/>
<path d="M71.1021 12.7996C71.1021 12.7275 71.1742 12.6555 71.2463 12.6555H71.7029C71.775 12.6555 71.8471 12.7275 71.8471 12.7996V15.2738C71.9192 15.2258 72.2797 14.9375 72.7844 14.9375C73.6736 14.9375 74.1061 15.5621 74.1061 16.4269V18.0124C74.1061 18.0844 74.034 18.1565 73.9619 18.1565H73.5294C73.4332 18.1565 73.3852 18.0844 73.3852 18.0124V16.4269C73.3852 15.9224 73.1208 15.6342 72.7123 15.6342C72.2316 15.6342 71.8952 15.9945 71.8711 16.1386V18.0364C71.8711 18.1325 71.8231 18.1805 71.7029 18.1805H71.2463C71.1742 18.1805 71.1021 18.1084 71.1021 18.0364V12.7996Z" fill="#271B4F"/>
<path d="M76.3892 14.9376C77.2063 14.9376 77.8311 15.5621 77.8311 16.4029C77.8311 16.4509 77.8311 16.5711 77.8071 16.6191C77.8071 16.6912 77.735 16.7632 77.6629 16.7632H75.524C75.5481 17.1956 75.9085 17.604 76.4373 17.604C76.7256 17.604 76.99 17.4839 77.1342 17.3878C77.2303 17.3398 77.2784 17.2917 77.3505 17.3878L77.5668 17.6761C77.6148 17.7481 77.6389 17.7962 77.5427 17.8682C77.3265 18.0604 76.9179 18.2526 76.3892 18.2526C75.4279 18.2526 74.8031 17.5079 74.8031 16.5951C74.8271 15.7063 75.4519 14.9376 76.3892 14.9376ZM77.1102 16.2347C77.0861 15.8504 76.7737 15.5381 76.3892 15.5381C75.9566 15.5381 75.6442 15.8504 75.5961 16.2347H77.1102Z" fill="#271B4F"/>
<path d="M115.225 36.5093C115.201 36.4613 115.129 36.4132 115.081 36.4132H115.033C114.985 36.4132 114.913 36.4613 114.889 36.5093L113.231 40.1606C113.207 40.2087 113.207 40.2807 113.231 40.3288C113.255 40.3768 113.303 40.4009 113.375 40.4009H113.711C113.807 40.4009 113.879 40.3288 113.903 40.2807C113.952 40.1606 114.024 40.0405 114.072 39.9204C114.12 39.8003 114.168 39.7042 114.216 39.5841H115.898L116.211 40.2807C116.235 40.3528 116.307 40.4009 116.403 40.4009H116.739C116.811 40.4009 116.859 40.3768 116.883 40.3288C116.908 40.2807 116.908 40.2327 116.883 40.1606L115.225 36.5093ZM115.61 38.9836H114.456L115.033 37.6864L115.61 38.9836Z" fill="#271B4F"/>
<path d="M120.152 38.0947C119.695 37.9025 119.503 37.7344 119.503 37.4701C119.503 37.326 119.623 37.0378 120.056 37.0378C120.176 37.0378 120.392 37.0858 120.729 37.278H120.753C120.801 37.302 120.849 37.326 120.897 37.302C120.945 37.278 120.993 37.2539 121.041 37.2059L121.185 36.9897C121.233 36.9176 121.233 36.8696 121.209 36.8456C121.209 36.7975 121.161 36.7495 121.137 36.7255C121.017 36.6534 120.608 36.3892 120.104 36.3892C119.191 36.3892 118.854 37.0378 118.854 37.4701C118.854 38.1668 119.359 38.455 119.888 38.6953C120.44 38.9355 120.657 39.1277 120.657 39.3919C120.657 39.6561 120.416 39.8243 120.104 39.8243C119.719 39.8243 119.311 39.512 119.287 39.464C119.239 39.4399 119.191 39.4159 119.143 39.4159C119.094 39.4159 119.046 39.464 118.998 39.512C118.974 39.5601 118.95 39.5841 118.926 39.6321C118.902 39.6802 118.878 39.7042 118.854 39.7522C118.782 39.8964 118.854 39.9684 118.902 40.0165C118.974 40.0885 119.407 40.4729 120.128 40.4729C120.849 40.4729 121.402 39.9925 121.402 39.3679C121.353 38.6232 120.729 38.3109 120.152 38.0947Z" fill="#271B4F"/>
<path d="M125.319 36.4612H124.958C124.862 36.4612 124.79 36.5333 124.79 36.6294V38.0707H122.94V36.6294C122.94 36.5333 122.868 36.4612 122.771 36.4612H122.411C122.315 36.4612 122.243 36.5333 122.243 36.6294V40.2327C122.243 40.3288 122.315 40.4008 122.411 40.4008H122.771C122.868 40.4008 122.94 40.3288 122.94 40.2327V38.7193H124.79V40.2327C124.79 40.3288 124.862 40.4008 124.958 40.4008H125.319C125.415 40.4008 125.487 40.3288 125.487 40.2327V36.6294C125.487 36.5333 125.415 36.4612 125.319 36.4612Z" fill="#271B4F"/>
<path d="M127.217 36.4612H126.857C126.761 36.4612 126.689 36.5333 126.689 36.6294V40.2327C126.689 40.3288 126.761 40.4008 126.857 40.4008H127.217C127.313 40.4008 127.386 40.3288 127.386 40.2327V36.6294C127.386 36.5333 127.313 36.4612 127.217 36.4612Z" fill="#271B4F"/>
<path d="M130.942 36.4612H128.755C128.659 36.4612 128.587 36.5333 128.587 36.6294V40.2327C128.587 40.3288 128.659 40.4008 128.755 40.4008H129.116C129.212 40.4008 129.284 40.3288 129.284 40.2327V38.8634H130.678C130.774 38.8634 130.846 38.7914 130.846 38.6953V38.407C130.846 38.3109 130.774 38.2389 130.678 38.2389H129.284V37.1098H130.942C131.038 37.1098 131.111 37.0378 131.111 36.9417V36.6294C131.111 36.5333 131.038 36.4612 130.942 36.4612Z" fill="#271B4F"/>
<path d="M133.97 36.4612H131.639C131.543 36.4612 131.471 36.5333 131.471 36.6294V36.9417C131.471 37.0378 131.543 37.1098 131.639 37.1098H132.456V40.2327C132.456 40.3288 132.528 40.4008 132.625 40.4008H132.985C133.081 40.4008 133.153 40.3288 133.153 40.2327V37.1098H133.97C134.067 37.1098 134.139 37.0378 134.139 36.9417V36.6294C134.163 36.5333 134.067 36.4612 133.97 36.4612Z" fill="#271B4F"/>
<path d="M137.335 39.0076H136.95V36.6774C136.95 36.5813 136.878 36.5093 136.782 36.5093H136.59C136.542 36.5093 136.494 36.5333 136.446 36.5573L134.427 39.0556V39.4159C134.427 39.512 134.499 39.5841 134.595 39.5841H136.302V40.2327C136.302 40.3288 136.374 40.4008 136.47 40.4008H136.782C136.878 40.4008 136.95 40.3288 136.95 40.2327V39.5841H137.335C137.431 39.5841 137.503 39.512 137.503 39.4159V39.1757C137.503 39.0796 137.431 39.0076 137.335 39.0076ZM136.326 37.6623V39.0076H135.22L136.326 37.6623Z" fill="#271B4F"/>
<path d="M142.718 39.4159C142.646 39.3679 142.574 39.3679 142.502 39.4159C142.262 39.5841 141.997 39.7522 141.613 39.7522C140.892 39.7522 140.315 39.1517 140.315 38.407C140.315 37.6623 140.892 37.0618 141.613 37.0618C141.925 37.0618 142.262 37.1819 142.502 37.3981C142.55 37.4461 142.598 37.4461 142.622 37.4461C142.646 37.4461 142.694 37.4221 142.718 37.3981L142.958 37.1579C142.982 37.1338 143.006 37.0858 143.006 37.0378C143.006 36.9897 142.982 36.9417 142.934 36.9176C142.526 36.5573 142.093 36.3892 141.565 36.3892C140.435 36.3892 139.546 37.302 139.546 38.407C139.546 39.512 140.459 40.4248 141.565 40.4248C142.093 40.4248 142.574 40.2327 142.934 39.8723C142.958 39.8483 142.982 39.7763 142.982 39.7282C142.982 39.6802 142.958 39.6561 142.934 39.6321L142.718 39.4159Z" fill="#271B4F"/>
<path d="M145.626 36.4132C144.521 36.4132 143.607 37.326 143.607 38.4311C143.607 39.5601 144.497 40.4489 145.626 40.4489C146.756 40.4489 147.645 39.5601 147.645 38.4311C147.645 37.326 146.756 36.4132 145.626 36.4132ZM145.626 39.7763C144.881 39.7763 144.28 39.1757 144.28 38.4311C144.28 37.6864 144.905 37.0858 145.626 37.0858C146.347 37.0858 146.972 37.7104 146.972 38.4311C146.972 39.1757 146.371 39.7763 145.626 39.7763Z" fill="#271B4F"/>
<path d="M151.971 36.5333C151.946 36.4613 151.874 36.4132 151.802 36.4132H151.706C151.634 36.4132 151.562 36.4613 151.562 36.5093L150.481 39.1757L149.399 36.5333C149.375 36.4613 149.303 36.4372 149.255 36.4372H149.159C149.087 36.4372 149.015 36.4853 148.991 36.5573L148.318 40.2087C148.318 40.2807 148.342 40.3288 148.366 40.3528C148.39 40.3768 148.438 40.4009 148.51 40.4009H148.87C148.942 40.4009 149.015 40.3288 149.039 40.2567L149.399 38.0227L150.312 40.3288C150.336 40.4009 150.408 40.4249 150.456 40.4249H150.553C150.625 40.4249 150.697 40.3768 150.697 40.3288L151.61 38.0227L151.971 40.2567C151.995 40.3288 152.067 40.3768 152.139 40.3768H152.499C152.547 40.3768 152.595 40.3528 152.643 40.3288C152.667 40.2807 152.691 40.2327 152.667 40.1847L151.971 36.5333Z" fill="#271B4F"/>
<path d="M154.975 36.4612H153.725C153.629 36.4612 153.557 36.5333 153.557 36.6294V40.2327C153.557 40.3288 153.629 40.4008 153.725 40.4008H154.085C154.181 40.4008 154.254 40.3288 154.254 40.2327V39.0316H154.975C155.671 39.0316 156.248 38.4551 156.248 37.7344C156.272 37.0378 155.695 36.4612 154.975 36.4612ZM154.278 37.1339H154.951C155.287 37.1339 155.575 37.3981 155.575 37.7104C155.575 38.0467 155.287 38.335 154.951 38.335H154.278V37.1339Z" fill="#271B4F"/>
<path d="M158.411 36.5093C158.387 36.4613 158.315 36.4132 158.267 36.4132H158.219C158.171 36.4132 158.099 36.4613 158.075 36.5093L156.416 40.1606C156.392 40.2087 156.392 40.2807 156.416 40.3288C156.441 40.3768 156.489 40.4009 156.561 40.4009H156.897C156.993 40.4009 157.065 40.3288 157.089 40.2807C157.137 40.1606 157.21 40.0405 157.258 39.9204C157.306 39.8003 157.354 39.7042 157.402 39.5841H159.084L159.396 40.2807C159.421 40.3528 159.493 40.4009 159.589 40.4009H159.925C159.997 40.4009 160.045 40.3768 160.069 40.3288C160.093 40.2807 160.093 40.2327 160.069 40.1606L158.411 36.5093ZM158.82 38.9836H157.666L158.243 37.6864L158.82 38.9836Z" fill="#271B4F"/>
<path d="M163.891 36.4613H163.554C163.458 36.4613 163.386 36.5333 163.386 36.6294V39.0316L161.127 36.4132H160.959C160.862 36.4132 160.79 36.4853 160.79 36.5814V40.2327C160.79 40.3288 160.862 40.4009 160.959 40.4009H161.295C161.391 40.4009 161.463 40.3288 161.463 40.2327V37.7584L163.722 40.4249L163.746 40.4489H163.915C164.011 40.4489 164.083 40.3768 164.083 40.2807V36.6294C164.059 36.5333 163.987 36.4613 163.891 36.4613Z" fill="#271B4F"/>
<path d="M167.976 36.5573C167.952 36.5093 167.88 36.4612 167.832 36.4612H167.423C167.351 36.4612 167.303 36.5093 167.279 36.5333L166.342 37.8545L165.405 36.5333C165.356 36.4853 165.308 36.4612 165.26 36.4612H164.852C164.78 36.4612 164.732 36.4853 164.708 36.5573C164.684 36.6054 164.684 36.6774 164.708 36.7255L165.957 38.5271V40.2327C165.957 40.3288 166.029 40.4008 166.125 40.4008H166.486C166.582 40.4008 166.654 40.3288 166.654 40.2327V38.5271L167.928 36.7255C168.024 36.6774 168.024 36.6054 167.976 36.5573Z" fill="#271B4F"/>
</g>
<defs>
<clipPath id="clip0_3979_166">
<rect width="168" height="44" fill="white"/>
</clipPath>
</defs>
</svg>
